<svg width="50" height="50" fill="none" xmlns="http://www.w3.org/2000/svg"><circle cx="25" cy="25" r="25" fill="#BBDEE2" fill-opacity=".83"/><path d="M33.513 34.56h-6.4a.51.51 0 01-.5-.5v-6.8h-4.2v6.8a.51.51 0 01-.5.5h-6.4a.5.5 0 01-.5-.5V23.67a.5.5 0 011 0v9.89h5.4v-6.78a.5.5 0 01.5-.5h5.2a.5.5 0 01.5.5v6.8h5.4v-9.91a.5.5 0 011 0v10.39a.5.5 0 01-.5.5z" fill="#496F74"/><path d="M36.523 25.61a.53.53 0 01-.29-.1l-11.72-8.39-11.72 8.39a.51.51 0 01-.7-.11.501.501 0 01.12-.7l12-8.61a.51.51 0 01.58 0l12 8.61a.5.5 0 01-.29.91h.02z" fill="#496F74"/></svg>